<svg xmlns="http://www.w3.org/2000/svg" width="21.561" height="24.155" viewBox="0 0 21.561 24.155">
  <g id="bell-Filled" transform="translate(0.781 0.75)">
    <path id="bell-Filled-2" data-name="bell-Filled" d="M11.147,23.047h4.706a2.353,2.353,0,1,1-4.706,0ZM23.2,18.076,21.9,15.9a5.3,5.3,0,0,1-.753-2.721V10.093a7.648,7.648,0,0,0-15.283,0v3.091A5.294,5.294,0,0,1,5.106,15.9L3.8,18.076a2.118,2.118,0,0,0,1.814,3.206H21.383A2.118,2.118,0,0,0,23.2,18.076Z" transform="translate(-3.502 -2.745)" fill="none" stroke="#0d3446" stroke-width="1.5"/>
  </g>
</svg>
