<svg xmlns="http://www.w3.org/2000/svg" width="21.54" height="20.485" viewBox="0 0 21.54 20.485">
  <g id="_9c1cddd3264296afb9905039fa04c9e7" data-name="9c1cddd3264296afb9905039fa04c9e7" transform="translate(0.77 0.788)">
    <path id="Path_1449" data-name="Path 1449" d="M9.748,18.793A36.678,36.678,0,0,1,3.41,13.858,12.622,12.622,0,0,1,.393,9.048C-.74,5.527.583,1.5,4.285.3A6.293,6.293,0,0,1,10,1.265h0A6.3,6.3,0,0,1,15.706.3c3.7,1.193,5.035,5.224,3.9,8.745a12.621,12.621,0,0,1-3.017,4.81,36.678,36.678,0,0,1-6.339,4.935l-.247.154ZM13.936,4.266a2.928,2.928,0,0,1,2.018,2.549" transform="translate(0 0)" fill="none" stroke="#0d3446" stroke-linecap="round" stroke-linejoin="round" stroke-width="1.5" fill-rule="evenodd"/>
  </g>
</svg>
