<svg xmlns="http://www.w3.org/2000/svg" width="20" height="20.172" viewBox="0 0 20 20.172">
  <path id="Union_2" data-name="Union 2" d="M-2278.681,17.833a2.327,2.327,0,0,1,.18-.9h-3.762a2.331,2.331,0,0,1,.18.9,2.339,2.339,0,0,1-2.339,2.339,2.339,2.339,0,0,1-2.339-2.339,2.33,2.33,0,0,1,.2-.951,2.276,2.276,0,0,1-1.8-2.224,2.275,2.275,0,0,1,1.4-2.1,2.968,2.968,0,0,1-.448-1.012l-.964-3.918a.731.731,0,0,1-.059-.174l-1.047-4.543a1.876,1.876,0,0,0-1.836-1.45h-.953A.731.731,0,0,1-2293,.731a.731.731,0,0,1,.731-.731h.953a3.339,3.339,0,0,1,3.263,2.579l.31,1.351a2.988,2.988,0,0,1,2.088-.831h9.647a2.987,2.987,0,0,1,2.364,1.134,2.987,2.987,0,0,1,.56,2.561l-1.169,4.766a2.983,2.983,0,0,1-2.941,2.286h-8.887a.813.813,0,0,0-.813.813.813.813,0,0,0,.813.812h9.741a.73.73,0,0,1,.219.033,2.339,2.339,0,0,1,2.12,2.329,2.338,2.338,0,0,1-2.338,2.339A2.339,2.339,0,0,1-2278.681,17.833Zm1.456-.008a.889.889,0,0,0,.891.885.889.889,0,0,0,.887-.889.889.889,0,0,0-.263-.631.887.887,0,0,0-.632-.258A.889.889,0,0,0-2277.225,17.825Zm-8.086,0a.889.889,0,0,0,.888.889.889.889,0,0,0,.889-.889.889.889,0,0,0-.889-.889A.888.888,0,0,0-2285.311,17.822Zm8.115-5.438a1.519,1.519,0,0,0,1.485-1.169l1.169-4.765a1.527,1.527,0,0,0-.283-1.306,1.525,1.525,0,0,0-1.2-.583h-9.665a1.531,1.531,0,0,0-1.2.585,1.533,1.533,0,0,0-.318,1.122l.178.778,1.023,4.169a1.519,1.519,0,0,0,1.485,1.169Z" transform="translate(2293 0)" fill="#0d3446"/>
</svg>
